<?xml version="1.0" standalone="no"?>
<!DOCTYPE svg PUBLIC "-//W3C//DTD SVG 20010904//EN"
 "http://www.w3.org/TR/2001/REC-SVG-20010904/DTD/svg10.dtd">
<svg version="1.0" xmlns="http://www.w3.org/2000/svg"
 width="500.000000pt" height="500.000000pt" viewBox="0 0 500.000000 500.000000"
 preserveAspectRatio="xMidYMid meet">
<metadata>
Created by potrace 1.14, written by Peter Selinger 2001-2017
</metadata>
<g transform="translate(0.000000,500.000000) scale(0.100000,-0.100000)"
fill="#000000" stroke="none">
<path d="M640 2610 l0 -340 75 0 75 0 0 129 0 129 94 4 c83 3 100 7 142 33 63
40 94 97 94 176 0 69 -12 104 -48 143 -53 56 -90 66 -269 66 l-163 0 0 -340z
m290 202 c26 -20 37 -64 26 -108 -8 -32 -55 -54 -116 -54 l-50 0 0 88 c0 49 3
92 8 96 12 13 105 -3 132 -22z"/>
<path d="M3823 2898 c-12 -6 -27 -24 -34 -41 -15 -36 1 -73 44 -97 24 -13 30
-13 54 0 43 24 59 61 44 97 -12 29 -47 54 -74 52 -7 0 -22 -5 -34 -11z"/>
<path d="M2130 2595 l0 -305 70 0 69 0 3 129 3 129 110 -128 110 -129 99 0
100 -1 -30 33 c-136 144 -254 288 -248 299 4 7 56 70 116 140 59 69 108 129
108 132 0 3 -37 6 -82 5 l-83 0 -100 -122 -100 -121 -3 122 -3 122 -69 0 -70
0 0 -305z"/>
<path d="M1395 2699 c-17 -4 -45 -23 -63 -40 l-32 -31 0 31 0 31 -70 0 -70 0
0 -210 0 -210 69 0 69 0 4 135 c3 122 5 136 25 156 22 22 76 29 120 15 19 -6
26 0 48 43 14 28 25 55 25 60 0 19 -84 33 -125 20z"/>
<path d="M1725 2705 c-5 -2 -26 -6 -46 -9 -59 -10 -124 -60 -153 -118 -45 -89
-30 -178 40 -245 112 -108 321 -90 404 35 29 44 35 74 30 147 -4 66 -64 141
-134 170 -33 13 -124 27 -141 20z m76 -131 c37 -19 63 -74 54 -115 -8 -37 -59
-79 -95 -79 -91 0 -142 96 -89 164 36 46 80 56 130 30z"/>
<path d="M2770 2660 c-84 -44 -125 -128 -108 -219 17 -90 106 -161 203 -161
81 0 161 35 185 80 9 17 4 22 -31 41 l-42 21 -44 -22 c-52 -26 -93 -20 -123
17 -11 14 -20 30 -20 34 0 5 63 9 140 9 l140 0 0 33 c-1 41 -23 102 -47 129
-49 56 -182 76 -253 38z m144 -81 c14 -11 26 -25 26 -30 0 -5 -32 -9 -71 -9
-61 0 -70 2 -67 17 3 19 42 43 69 43 9 0 28 -9 43 -21z"/>
<path d="M3263 2659 c-28 -18 -33 -19 -33 -5 0 13 -13 16 -70 16 l-70 0 0
-190 0 -190 70 0 69 0 3 132 3 132 28 16 c24 13 30 13 55 0 l27 -16 3 -132 3
-132 69 0 70 0 0 129 c0 123 1 131 22 145 30 21 51 20 79 -3 23 -18 24 -27 28
-145 l3 -126 64 0 64 0 0 133 c0 72 -5 149 -10 169 -13 46 -57 79 -115 86 -57
6 -86 -2 -124 -33 l-30 -26 -21 21 c-45 45 -133 54 -187 19z"/>
<path d="M4055 2661 c-63 -38 -105 -111 -105 -181 0 -78 60 -169 127 -191 49
-16 124 -7 162 20 31 22 31 22 31 2 0 -19 6 -21 65 -21 l65 0 0 190 0 190 -65
0 c-51 0 -65 -3 -65 -15 0 -12 -6 -12 -37 5 -49 26 -136 27 -178 1z m186 -120
c20 -20 29 -39 29 -61 0 -22 -9 -41 -29 -61 -37 -36 -79 -38 -118 -5 -22 19
-28 32 -28 66 0 82 88 119 146 61z"/>
<path d="M3790 2480 l0 -190 65 0 65 0 0 190 0 190 -65 0 -65 0 0 -190z"/>
</g>
</svg>
